<?xml version="1.0" encoding="UTF-8"?>
<svg width="42px" height="42px" version="1.1" viewBox="0 0 512 512" xmlns="http://www.w3.org/2000/svg">
 <g fill="#ff001b">
  <path d="m195.48 218.01c0 21.238-17.215 38.453-38.449 38.453-21.238 0-38.453-17.215-38.453-38.453 0-21.234 17.215-38.449 38.453-38.449 21.234 0 38.449 17.215 38.449 38.449"/>
  <path d="m264.34 332.9 46.234-16.434c9.3711-3.3281 14.438-13.414 11.469-22.938-1.4336-4.5586-4.5039-8.1914-8.3438-10.445l53.195-92.211c1.332-2.3047 0.51172-5.2227-1.7422-6.5547-2.3047-1.332-5.2227-0.51172-6.5547 1.7422l-54.477 94.516c-1.6914 0-3.3789 0.25781-5.0703 0.76953l-51.812 15.719-37.121-15c-8.2422-3.3281-16.895-5.0195-25.805-5.0195h-38.348c-11.16 0-22.016 3.9414-30.516 11.16l-60.723 51.355c-7.832 6.6055-9.4219 18.023-3.7383 26.523l34.355 51.301c2.6641 3.9414 6.8594 6.6055 11.57 7.2188 4.7109 0.66406 9.4727-0.76953 13.055-3.8398 0.61328-0.5625 1.2305-1.125 1.7422-1.7422v20.84h90.625v-119.14l33.742 12.133c9.1133 3.2773 19.148 3.2773 28.262 0.050781zm-152.63 64.152-25.906-37.785 25.906-20.891z"/>
  <path d="m456.96 387.02h-17.355l-0.003907-304.89c0-5.4766-4.4531-9.9336-9.9336-9.9336h-374.63c-5.4766 0-9.9336 4.4531-9.9336 9.9336v223.13l19.918-16.844v-196.35h354.66v294.96l-182.32-0.003907v19.918h219.6c5.4766 0 9.9336-4.4531 9.9336-9.9336 0-5.4766-4.4531-9.9336-9.9336-9.9336z"/>
 </g>
</svg>
