<?xml version="1.0" encoding="UTF-8"?>
<svg width="48" height="48" version="1.1" viewBox="0 0 512 512" xmlns="http://www.w3.org/2000/svg">
 <path d="m255.98 24.008c-128.03 0-231.97 103.93-231.97 231.97 0 128.04 103.94 232.02 231.97 232.02s232.02-103.98 232.02-232.02c0-31.879-6.582-63.445-19.312-92.672-0.83594-1.9766-2.4297-3.5352-4.4219-4.332-1.9961-0.79297-4.2227-0.75781-6.1914 0.10547-1.9648 0.85938-3.5039 2.4727-4.2734 4.4766-0.76953 2.0039-0.70312 4.2344 0.18359 6.1875 11.852 27.211 18.016 56.555 18.016 86.234 0 119.39-96.629 216.02-216.02 216.02-119.39 0-215.97-96.629-215.97-216.02 0-119.39 96.582-215.97 215.97-215.97 29.688 0 59.051 6.0977 86.266 17.953 1.9609 0.94922 4.2227 1.0586 6.2617 0.30469 2.043-0.75391 3.6875-2.3125 4.5586-4.3047 0.87109-1.9961 0.89062-4.2617 0.054688-6.2734-0.83594-2.0078-2.457-3.5898-4.4844-4.3828-29.23-12.734-60.77-19.297-92.656-19.297zm176.62 0c-2.0547 0.035157-4.0195 0.85547-5.4844 2.2969l-51.438 51.438c-1.6797 1.6797-2.5234 4.0117-2.3125 6.375l3.4375 38.906-123.61 123.61c-1.5547 1.4844-2.4453 3.5352-2.4727 5.6836-0.027344 2.1484 0.8125 4.2188 2.3281 5.7422 1.5156 1.5273 3.5781 2.375 5.7305 2.3594 2.1484-0.015625 4.2031-0.89453 5.6953-2.4414l122.98-122.92 40.422 3.5156c2.3398 0.19531 4.6484-0.65234 6.3125-2.3125l51.438-51.422c2.1758-2.1992 2.8906-5.457 1.8281-8.3633-1.0586-2.9102-3.6992-4.9453-6.7812-5.2305l-36.734-3.25-3.1875-36.734c-0.39453-4.1836-3.957-7.3477-8.1562-7.25zm-6.3125 25.734 2.2969 26.344c0.33984 3.8633 3.4023 6.9258 7.2656 7.2656l26.344 2.2969-36.672 36.672-32.953-2.8906-2.9062-33zm-170.31 52.984c-84.555 0-153.25 68.695-153.25 153.25 0 84.555 68.695 153.3 153.25 153.3 84.555 0 153.3-68.742 153.3-153.3 0-22.84-5.1016-45.418-14.938-66.031-0.90234-1.9414-2.543-3.4414-4.5586-4.168-2.0117-0.72266-4.2344-0.61328-6.168 0.30859-1.9297 0.92187-3.4141 2.5781-4.1172 4.6016-0.70313 2.0234-0.56641 4.2422 0.375 6.1641 8.8086 18.461 13.406 38.668 13.406 59.125 0 75.91-61.387 137.3-137.3 137.3-75.91 0-137.25-61.387-137.25-137.3 0-75.91 61.34-137.25 137.25-137.25 20.078 0 39.918 4.375 58.109 12.875 1.9375 1.0391 4.2109 1.2305 6.2969 0.53906 2.082-0.69141 3.7891-2.207 4.7227-4.1953 0.93359-1.9883 1.0039-4.2734 0.20312-6.3164-0.80078-2.0469-2.4062-3.6719-4.4414-4.4961-20.312-9.4883-42.473-14.406-64.891-14.406zm-0.42187 84.391c-37.871 0.22656-68.59 31.27-68.438 69.141 0.15234 37.871 31.16 68.652 69.031 68.578 37.871-0.074219 68.672-30.988 68.672-68.859-0.097656-4.3477-3.6523-7.8203-8-7.8203-4.3477 0-7.9023 3.4727-8 7.8203 0 29.238-23.496 52.785-52.734 52.844-29.238 0.058594-52.852-23.371-52.969-52.609-0.12109-29.238 23.324-52.918 52.562-53.094 2.1523 0.03125 4.2266-0.80469 5.7539-2.3242 1.5273-1.5156 2.3789-3.5859 2.3633-5.7383-0.019531-2.1523-0.90234-4.207-2.4531-5.7031-1.5508-1.4922-3.6367-2.2969-5.7891-2.2344z" fill="#ff001b"/>
</svg>
