<?xml version="1.0" encoding="UTF-8"?>
<svg width="48px" height="48px" version="1.1" viewBox="0 0 512 512" xmlns="http://www.w3.org/2000/svg">
 <g fill="#ff001b">
  <path d="m165.12 468.2c1.7539 0.74609 3.6406 1.1328 5.5469 1.1367 5.707-0.003906 10.855-3.418 13.082-8.6758l170.67-398.22v0.003906c1.6445-3.5 1.7969-7.5195 0.41406-11.133-1.3789-3.6133-4.1719-6.5078-7.7344-8.0156-3.5586-1.5117-7.582-1.5039-11.137 0.015626-3.5586 1.5195-6.3398 4.4219-7.7109 8.0391l-170.67 398.22v-0.003906c-3.0586 7.2266 0.31641 15.566 7.5391 18.633z"/>
  <path d="m118.61 366.22c2.5938 2.2852 5.9297 3.5508 9.3867 3.5547 4.0859-0.003906 7.9688-1.7656 10.668-4.8359 5.1758-5.8945 4.6016-14.863-1.2812-20.051l-101.55-88.891 101.55-88.891c3.0195-2.4336 4.918-5.9922 5.25-9.8594s-0.92969-7.6992-3.4961-10.609c-2.5625-2.9141-6.2031-4.6523-10.078-4.8164-3.875-0.16016-7.6523 1.2656-10.449 3.9531l-113.78 99.555c-3.0625 2.6992-4.8164 6.5859-4.8164 10.668s1.7539 7.9688 4.8164 10.668z"/>
  <path d="m393.39 145.78c-5.9297-4.7773-14.57-4.0352-19.598 1.6797-5.0312 5.7188-4.668 14.379 0.82422 19.652l101.55 88.891-101.55 88.891c-5.8828 5.1875-6.457 14.156-1.2812 20.051 2.6992 3.0703 6.582 4.832 10.668 4.8359 3.457-0.003906 6.793-1.2695 9.3867-3.5547l113.78-99.555c3.0625-2.6992 4.8164-6.5859 4.8164-10.668s-1.7539-7.9688-4.8164-10.668z"/>
 </g>
</svg>
